<svg xmlns="http://www.w3.org/2000/svg" width="127" height="33" viewBox="0 0 127 33">
    <g fill="#4D4D4D" fill-rule="evenodd">
        <path d="M19.893 15.39c-.033-3.61 2.955-5.366 3.092-5.448-1.691-2.468-4.316-2.805-5.237-2.831-2.203-.231-4.339 1.318-5.462 1.318-1.144 0-2.873-1.295-4.735-1.258-2.396.038-4.639 1.425-5.869 3.58-2.537 4.394-.645 10.851 1.786 14.402 1.216 1.739 2.638 3.682 4.498 3.612 1.82-.074 2.5-1.16 4.696-1.16 2.177 0 2.815 1.16 4.713 1.116 1.952-.03 3.183-1.746 4.357-3.501 1.404-1.994 1.97-3.957 1.99-4.058-.043-.015-3.792-1.445-3.829-5.773M16.309 4.775c.979-1.225 1.647-2.889 1.462-4.58-1.417.062-3.188.98-4.21 2.178-.901 1.055-1.708 2.785-1.5 4.41 1.592.118 3.227-.803 4.248-2.008M36.374 22.584h4.735l-2.335-6.873h-.065l-2.335 6.873zm5.354 1.954h-5.973l-1.433 4.235h-2.53l5.656-15.669h2.628l5.658 15.669H43.16l-1.432-4.235zM55.54 23.062c0-2.313-1.194-3.833-3.019-3.833-1.79 0-2.995 1.552-2.995 3.833 0 2.302 1.205 3.843 2.995 3.843 1.825 0 3.02-1.51 3.02-3.843zm2.41 0c0 3.55-1.9 5.83-4.766 5.83-1.628 0-2.921-.727-3.595-1.998h-.054v5.658H47.19V17.349h2.27v1.9h.043c.651-1.225 2.042-2.019 3.638-2.019 2.9 0 4.81 2.292 4.81 5.832zM68.114 23.062c0-2.313-1.195-3.833-3.02-3.833-1.791 0-2.996 1.552-2.996 3.833 0 2.302 1.205 3.843 2.997 3.843 1.824 0 3.02-1.51 3.02-3.843zm2.41 0c0 3.55-1.9 5.83-4.767 5.83-1.628 0-2.92-.727-3.595-1.998h-.054v5.658h-2.344V17.349h2.27v1.9h.043c.65-1.225 2.041-2.019 3.637-2.019 2.899 0 4.81 2.292 4.81 5.832zM78.834 24.407c.173 1.555 1.683 2.574 3.745 2.574 1.977 0 3.4-1.02 3.4-2.421 0-1.216-.859-1.945-2.89-2.443l-2.03-.49c-2.877-.695-4.213-2.04-4.213-4.224 0-2.703 2.357-4.56 5.7-4.56 3.312 0 5.582 1.857 5.658 4.56h-2.367c-.141-1.563-1.433-2.507-3.322-2.507-1.89 0-3.183.955-3.183 2.344 0 1.108.826 1.76 2.846 2.26l1.726.423c3.215.76 4.55 2.052 4.55 4.344 0 2.931-2.334 4.767-6.048 4.767-3.475 0-5.822-1.793-5.973-4.627h2.401M93.516 14.646v2.703h2.173v1.857h-2.173v6.298c0 .979.435 1.434 1.39 1.434.239 0 .62-.033.771-.054v1.846c-.26.066-.78.109-1.302.109-2.313 0-3.215-.87-3.215-3.084v-6.549H89.5V17.35h1.66v-2.703h2.356M105.393 23.062c0-2.465-1.13-3.921-3.03-3.921s-3.029 1.466-3.029 3.921c0 2.476 1.13 3.92 3.03 3.92s3.029-1.444 3.029-3.92zm-8.448 0c0-3.595 2.118-5.853 5.418-5.853 3.313 0 5.42 2.258 5.42 5.853 0 3.604-2.096 5.852-5.42 5.852-3.322 0-5.418-2.248-5.418-5.852zM109.716 17.349h2.236v1.944h.055c.358-1.292 1.4-2.063 2.747-2.063.337 0 .618.044.804.087v2.193c-.186-.075-.598-.141-1.054-.141-1.509 0-2.443 1.022-2.443 2.628v6.776h-2.345V17.349M118.442 22.009h5.71c-.053-1.75-1.171-2.9-2.8-2.9-1.618 0-2.79 1.173-2.91 2.9zm7.927 3.409c-.316 2.074-2.335 3.496-4.919 3.496-3.323 0-5.386-2.226-5.386-5.798 0-3.583 2.074-5.907 5.288-5.907 3.16 0 5.148 2.171 5.148 5.635v.804h-8.07v.14c0 1.955 1.228 3.236 3.074 3.236 1.303 0 2.325-.618 2.639-1.606h2.226zM34.531 7.775h1.42c1.574 0 2.481-.98 2.481-2.708 0-1.701-.922-2.693-2.482-2.693h-1.419v5.4zm1.55-6.464c2.233 0 3.542 1.371 3.542 3.74 0 2.406-1.3 3.789-3.543 3.789h-2.719V1.31h2.72zM45.15 5.996c0-1.232-.554-1.951-1.524-1.951-.976 0-1.523.719-1.523 1.95 0 1.242.547 1.958 1.523 1.958.97 0 1.524-.721 1.524-1.957zm-4.205 0c0-1.831 1.022-2.948 2.68-2.948 1.655 0 2.678 1.117 2.678 2.948 0 1.842-1.018 2.953-2.677 2.953-1.664 0-2.681-1.111-2.681-2.953zM53.426 8.84h-1.163l-1.174-4.186H51L49.832 8.84H48.68l-1.567-5.682h1.138l1.017 4.335h.085l1.168-4.335h1.075l1.169 4.335h.088l1.013-4.335h1.122L53.426 8.84M56.304 3.158h1.079v.902h.083c.276-.63.84-1.012 1.696-1.012 1.268 0 1.967.76 1.967 2.113V8.84h-1.122V5.443c0-.914-.396-1.368-1.226-1.368s-1.357.554-1.357 1.44V8.84h-1.12V3.158M62.916 8.84h1.121V.94h-1.121zM69.801 5.996c0-1.232-.554-1.951-1.524-1.951-.975 0-1.523.719-1.523 1.95 0 1.242.548 1.958 1.523 1.958.97 0 1.524-.721 1.524-1.957zm-4.205 0c0-1.831 1.022-2.948 2.68-2.948 1.655 0 2.678 1.117 2.678 2.948 0 1.842-1.018 2.953-2.677 2.953-1.664 0-2.681-1.111-2.681-2.953zM75.787 6.748v-.476L74.4 6.36c-.782.053-1.137.32-1.137.82 0 .511.443.81 1.053.81.845 0 1.47-.538 1.47-1.242zm-3.652.484c0-1.022.761-1.612 2.114-1.696l1.538-.088v-.49c0-.6-.396-.94-1.162-.94-.626 0-1.06.23-1.185.631h-1.085c.115-.975 1.032-1.601 2.322-1.601 1.424 0 2.227.71 2.227 1.91V8.84h-1.08v-.8h-.089c-.338.57-.959.893-1.706.893-1.095 0-1.894-.663-1.894-1.701zM79.536 5.996c0 1.205.567 1.93 1.518 1.93.945 0 1.529-.736 1.529-1.925 0-1.184-.59-1.93-1.53-1.93-.943 0-1.517.73-1.517 1.925zm-1.159 0c0-1.796.924-2.933 2.359-2.933.778 0 1.434.371 1.742.997h.085V.94h1.12v7.9h-1.074V7.94h-.09c-.337.622-1.001.992-1.783.992-1.445 0-2.359-1.137-2.359-2.937zM92.528 5.996c0-1.232-.554-1.951-1.524-1.951-.976 0-1.523.719-1.523 1.95 0 1.242.547 1.958 1.523 1.958.97 0 1.524-.721 1.524-1.957zm-4.205 0c0-1.831 1.023-2.948 2.68-2.948 1.655 0 2.678 1.117 2.678 2.948 0 1.842-1.018 2.953-2.677 2.953-1.663 0-2.681-1.111-2.681-2.953zM95.187 3.158h1.078v.902h.084c.276-.63.84-1.012 1.695-1.012 1.269 0 1.968.76 1.968 2.113V8.84H98.89V5.443c0-.914-.396-1.368-1.227-1.368-.829 0-1.356.554-1.356 1.44V8.84h-1.12V3.158M106.347 1.743v1.44h1.231v.945h-1.231V7.05c0 .596.246.857.804.857.172 0 .27-.012.427-.027v.934a3.611 3.611 0 0 1-.61.058c-1.247 0-1.743-.439-1.743-1.534V4.128h-.902v-.945h.902v-1.44h1.122M109.11.94h1.112v3.13h.088c.275-.636.876-1.017 1.732-1.017 1.21 0 1.957.767 1.957 2.119V8.84h-1.123V5.448c0-.907-.422-1.368-1.215-1.368-.918 0-1.43.58-1.43 1.441V8.84h-1.12V.94M116.592 5.474h2.87c-.026-.892-.568-1.472-1.398-1.472s-1.409.585-1.472 1.472zm3.945 1.831c-.255 1.018-1.164 1.644-2.462 1.644-1.628 0-2.624-1.116-2.624-2.933 0-1.816 1.018-2.968 2.619-2.968 1.58 0 2.535 1.08 2.535 2.864v.391h-4.013v.063c.038.996.617 1.628 1.513 1.628.68 0 1.145-.246 1.353-.689h1.079z"/>
    </g>
</svg>
