<svg xmlns="http://www.w3.org/2000/svg" xmlns:xlink="http://www.w3.org/1999/xlink" viewBox="0 0 137 31.88"><defs><style>.cls-1,.cls-2{fill:#4d4d4d;}.cls-1{stroke:#fff;stroke-miterlimit:10;stroke-width:0.16px;}.cls-3{fill:url(#linear-gradient);}.cls-4{fill:url(#linear-gradient-2);}.cls-5{fill:url(#linear-gradient-3);}.cls-6{fill:url(#linear-gradient-4);}</style><linearGradient id="linear-gradient" x1="23.09" y1="-446.22" x2="3.29" y2="-426.42" gradientTransform="matrix(1, 0, 0, -0.99, -9.16, -413.44)" gradientUnits="userSpaceOnUse"><stop offset="0" stop-color="#00a0ff"/><stop offset="0.01" stop-color="#00a1ff"/><stop offset="0.26" stop-color="#00beff"/><stop offset="0.51" stop-color="#00d2ff"/><stop offset="0.76" stop-color="#00dfff"/><stop offset="1" stop-color="#00e3ff"/></linearGradient><linearGradient id="linear-gradient-2" x1="37.29" y1="-432.9" x2="8.74" y2="-432.9" gradientTransform="matrix(1, 0, 0, -0.99, -9.16, -413.44)" gradientUnits="userSpaceOnUse"><stop offset="0" stop-color="#ffe000"/><stop offset="0.41" stop-color="#ffbd00"/><stop offset="0.78" stop-color="orange"/><stop offset="1" stop-color="#ff9c00"/></linearGradient><linearGradient id="linear-gradient-3" x1="16.82" y1="-440.04" x2="-10.02" y2="-413.2" gradientTransform="matrix(1, 0, 0, -0.99, -9.16, -413.44)" gradientUnits="userSpaceOnUse"><stop offset="0" stop-color="#ff3a44"/><stop offset="1" stop-color="#c31162"/></linearGradient><linearGradient id="linear-gradient-4" x1="-3.86" y1="-446.44" x2="8.13" y2="-434.46" gradientTransform="matrix(1, 0, 0, -0.99, -9.16, -413.44)" gradientUnits="userSpaceOnUse"><stop offset="0" stop-color="#32a071"/><stop offset="0.07" stop-color="#2da771"/><stop offset="0.48" stop-color="#15cf74"/><stop offset="0.8" stop-color="#06e775"/><stop offset="1" stop-color="#00f076"/></linearGradient></defs><title>GP</title><g id="Layer_2" data-name="Layer 2"><g id="Layer_1-2" data-name="Layer 1"><g id="g12"><g id="g18"><path id="path20" class="cls-1" d="M44.28,4a3.14,3.14,0,0,1-.88,2.34,3.48,3.48,0,0,1-2.61,1,3.65,3.65,0,0,1-2.61-1,3.56,3.56,0,0,1-1.07-2.62,3.52,3.52,0,0,1,1.07-2.6A3.58,3.58,0,0,1,40.79.08a3.63,3.63,0,0,1,1.46.3,2.78,2.78,0,0,1,1.11.78l-.62.61a2.42,2.42,0,0,0-2-.82,2.77,2.77,0,0,0-1.94.77,2.69,2.69,0,0,0-.81,2,2.7,2.7,0,0,0,.81,2,2.78,2.78,0,0,0,1.94.78,2.71,2.71,0,0,0,2-.79,2.14,2.14,0,0,0,.6-1.42H40.79V3.5h3.44A2.44,2.44,0,0,1,44.28,4Z"/></g><g id="g22"><path id="path24" class="cls-1" d="M49.73,1.1H46.5V3.32h2.91v.85H46.5V6.39h3.23v.86H45.59v-7h4.14Z"/></g><g id="g26"><path id="path28" class="cls-1" d="M53.58,7.25h-.92V1.1h-2V.24h4.88V1.1h-2Z"/></g><g id="g30"><path id="path32" class="cls-1" d="M59.09,7.25v-7H60v7Z"/></g><g id="g34"><path id="path36" class="cls-1" d="M64,7.25h-.91V1.1h-2V.24H66V1.1H64Z"/></g><g id="g38"><path id="path40" class="cls-1" d="M75.25,6.35a3.72,3.72,0,0,1-5.2,0,3.57,3.57,0,0,1-1-2.61,3.56,3.56,0,0,1,1-2.6,3.71,3.71,0,0,1,5.2,0,3.55,3.55,0,0,1,1,2.59A3.58,3.58,0,0,1,75.25,6.35Zm-4.52-.59a2.74,2.74,0,0,0,3.85,0,2.77,2.77,0,0,0,.79-2,2.74,2.74,0,0,0-.79-2,2.74,2.74,0,0,0-3.85,0,2.71,2.71,0,0,0-.8,2A2.74,2.74,0,0,0,70.73,5.76Z"/></g><g id="g42"><path id="path44" class="cls-1" d="M77.58,7.25v-7h1.11l3.45,5.45h0l0-1.35V.24h.91v7h-1L78.49,1.53h0l0,1.35V7.25Z"/></g><path id="path46" class="cls-2" d="M68.78,17.48a5,5,0,1,0,5,5A4.93,4.93,0,0,0,68.78,17.48Zm0,8a2.88,2.88,0,0,1-2.83-3,2.84,2.84,0,1,1,5.67,0A2.89,2.89,0,0,1,68.78,25.46Zm-11-8a5,5,0,1,0,5,5A4.93,4.93,0,0,0,57.77,17.48Zm0,8a2.89,2.89,0,0,1-2.84-3,2.84,2.84,0,1,1,5.68,0A2.89,2.89,0,0,1,57.77,25.46ZM44.67,19v2.12h5.1a4.38,4.38,0,0,1-1.16,2.65,5.26,5.26,0,0,1-3.94,1.54,5.61,5.61,0,0,1,0-11.22,5.43,5.43,0,0,1,3.84,1.51L50,14.11A7.47,7.47,0,0,0,44.67,12a7.87,7.87,0,0,0-7.93,7.72,7.87,7.87,0,0,0,7.93,7.72,7.18,7.18,0,0,0,5.45-2.17A6.91,6.91,0,0,0,52,20.32,7.34,7.34,0,0,0,51.85,19Zm53.58,1.64a4.67,4.67,0,0,0-4.31-3.16,4.74,4.74,0,0,0-4.74,5,4.89,4.89,0,0,0,5,5,5,5,0,0,0,4.19-2.2l-1.72-1.13a2.86,2.86,0,0,1-2.47,1.37A2.55,2.55,0,0,1,91.75,24l6.73-2.75-.24-.57ZM91.39,22.3A2.74,2.74,0,0,1,94,19.4a1.94,1.94,0,0,1,1.87,1.05L91.39,22.3Zm-5.47,4.82h2.21V12.51H85.92ZM82.3,18.59h-.08a3.49,3.49,0,0,0-2.64-1.11,5,5,0,0,0,0,9.94,3.43,3.43,0,0,0,2.64-1.13h.08V27c0,1.9-1,2.92-2.69,2.92a2.78,2.78,0,0,1-2.53-1.78l-1.93.8a4.82,4.82,0,0,0,4.46,2.93c2.6,0,4.78-1.5,4.78-5.17V17.78H82.3Zm-2.53,6.87a2.86,2.86,0,0,1-2.8-3,2.88,2.88,0,0,1,2.8-3,2.81,2.81,0,0,1,2.68,3A2.79,2.79,0,0,1,79.77,25.46ZM108.6,12.51h-5.29V27.12h2.21V21.58h3.08a4.66,4.66,0,0,0,4.85-4.53A4.67,4.67,0,0,0,108.6,12.51Zm.06,7h-3.14v-5h3.14a2.51,2.51,0,1,1,0,5Zm13.63-2.1a4.15,4.15,0,0,0-3.93,2.24l2,.81a2.1,2.1,0,0,1,2-1.07,2.12,2.12,0,0,1,2.32,1.88v.15a4.84,4.84,0,0,0-2.3-.57c-2.11,0-4.26,1.15-4.26,3.29a3.4,3.4,0,0,0,3.67,3.22A3.15,3.15,0,0,0,124.58,26h.07V27.1h2.13V21.49C126.78,18.9,124.82,17.45,122.29,17.45Zm-.27,8c-.72,0-1.72-.35-1.72-1.24,0-1.13,1.25-1.56,2.33-1.56a4,4,0,0,1,2,.49A2.67,2.67,0,0,1,122,25.46Zm12.52-7.69L132,24.11h-.08l-2.62-6.34h-2.38l3.94,8.85-2.25,4.93h2.31L137,17.77Zm-19.88,9.35h2.21V12.51h-2.21Z"/><g id="g48"><path id="path64" class="cls-3" d="M.55.87A2.3,2.3,0,0,0,0,2.51V28.36A2.3,2.3,0,0,0,.55,30l.08.08L15.29,15.6v-.34L.63.78Z"/></g><g id="g66"><path id="path78" class="cls-4" d="M20.17,20.43,15.29,15.6v-.34l4.88-4.83.11.07,5.79,3.25c1.65.92,1.65,2.44,0,3.37l-5.79,3.25Z"/></g><g id="g80"><path id="path88" class="cls-5" d="M20.28,20.37l-5-4.94L.55,30A1.94,1.94,0,0,0,3,30.07l17.27-9.7"/></g><g id="g90"><path id="path104" class="cls-6" d="M20.28,10.5,3,.79A2,2,0,0,0,.55.87L15.29,15.43Z"/></g></g></g></g></svg>