<svg xmlns="http://www.w3.org/2000/svg" viewBox="0 0 112.59 112.59"><title>favicon</title><g id="Layer_2" data-name="Layer 2"><g id="Layer_1-2" data-name="Layer 1"><circle cx="56.3" cy="56.3" r="51.3" style="fill:none;stroke:#27aae1;stroke-miterlimit:10;stroke-width:10px"/><path d="M42.91,75h0l9.12,0c6.36,0,11.5-4.12,11.48-9.13h0l-9.12,0C48,65.87,42.89,70,42.91,75Z" style="fill:#3581c4"/><path d="M41.84,61.82h0l19.82-.08c5.85,0,10.57-4.11,10.55-9.13l-19.82.09C46.54,52.72,41.82,56.81,41.84,61.82Z" style="fill:#4292cf"/><path d="M56.36,24.57h0a9.08,9.08,0,0,1,9.08,9.08V61.74a0,0,0,0,1,0,0h0a9.08,9.08,0,0,1-9.08-9.08V24.57A0,0,0,0,1,56.36,24.57Z" transform="translate(18 104.24) rotate(-90.24)" style="fill:#27aae1"/></g></g></svg>