<svg xmlns="http://www.w3.org/2000/svg" viewBox="0 0 222.68 215.64"><title>logo-default</title><g id="Layer_2" data-name="Layer 2"><g id="Layer_1-2" data-name="Layer 1"><path d="M6.33,215.64h0l54-.23c37.64-.16,68.06-24.35,67.93-54h0l-54,.23C36.62,161.76,6.2,186,6.33,215.64Z" style="fill:#3581c4"/><path d="M0,137.79H0l117.33-.49c34.59-.15,62.54-24.33,62.41-54l-117.33.5C27.82,83.93-.12,108.11,0,137.79Z" style="fill:#4292cf"/><path d="M85.93-82.65h0a53.75,53.75,0,0,1,53.75,53.75V137.32a0,0,0,0,1,0,0h0A53.75,53.75,0,0,1,85.93,83.58V-82.65a0,0,0,0,1,0,0Z" transform="translate(85.94 140.25) rotate(-90.24)" style="fill:#27aae1"/></g></g></svg>