<svg xmlns="http://www.w3.org/2000/svg" viewBox="0 0 647.14 647.14"><title>logo-lg-w</title><g id="Layer_2" data-name="Layer 2"><g id="Layer_1-2" data-name="Layer 1"><circle cx="323.57" cy="323.57" r="303.57" style="fill:#fff;stroke:#27aae1;stroke-miterlimit:10;stroke-width:40px"/><path d="M244.33,434.11h0l54-.23c37.64-.15,68.05-24.35,67.92-54h0l-54,.23C274.62,380.24,244.21,404.43,244.33,434.11Z" style="fill:#3581c4"/><path d="M238,356.27h0l117.33-.5c34.6-.14,62.54-24.32,62.41-54l-117.32.5C265.82,302.4,237.88,326.58,238,356.27Z" style="fill:#4292cf"/><path d="M323.93,135.82h0a53.75,53.75,0,0,1,53.75,53.75V355.8a0,0,0,0,1,0,0h0A53.75,53.75,0,0,1,323.93,302V135.82A0,0,0,0,1,323.93,135.82Z" transform="translate(106.47 597.64) rotate(-90.24)" style="fill:#27aae1"/></g></g></svg>