<svg xmlns="http://www.w3.org/2000/svg" viewBox="0 0 1348 648.68"><title>head-img-article</title><g id="Layer_2" data-name="Layer 2"><g id="Layer_1-2" data-name="Layer 1"><rect width="1348" height="647.37" style="fill:#97d1ec"/><path d="M416.09,647.37a31.81,31.81,0,0,0-39-23.65,46.88,46.88,0,0,0-56.37-24.9A57.74,57.74,0,0,0,217,608.91a39.6,39.6,0,0,0-58.86,34.61,37.74,37.74,0,0,0,.19,3.85Z" style="fill:#fff;opacity:0.8"/><path d="M645.65,293.41c2.82-14.13,13.79-24.67,26.9-24.67a24.48,24.48,0,0,1,7,1c6.47-15.95,20.52-27,36.81-27a35.7,35.7,0,0,1,12.09,2.11c8.77-16.74,24.7-27.93,42.91-27.93,21.65,0,40.09,15.84,47.08,38a30.82,30.82,0,0,1,16.71-5c19,0,34.37,17.73,34.37,39.61,0,1.29-.06,2.58-.17,3.84Z" style="fill:#fff;opacity:0.8"/><path d="M485.53,0A54.63,54.63,0,0,1,432.3,42.35a54.44,54.44,0,0,1-13.78-1.76A80.37,80.37,0,0,1,345.69,87a80.19,80.19,0,0,1-23.93-3.63A99.12,99.12,0,0,1,143.72,66a67.7,67.7,0,0,1-33,8.57,68,68,0,0,1-68-68c0-2.23.12-4.43.33-6.6Z" style="fill:#fff;opacity:0.8"/><path d="M958.65,0a41.34,41.34,0,0,0,40.28,32.05,41.24,41.24,0,0,0,10.43-1.33,60.83,60.83,0,0,0,55.12,35.08,60.5,60.5,0,0,0,18.1-2.74A75,75,0,0,0,1217.32,50a51.17,51.17,0,0,0,25,6.49A51.46,51.46,0,0,0,1293.79,5c0-1.68-.09-3.35-.25-5Z" style="fill:#fff;opacity:0.8"/><path d="M1020.55,255.18l3.13,38.08,22.12-24.91,71.54-58.6-61,19.22s-30,14.59-31.41,16.52S1020.55,255.18,1020.55,255.18Z" style="fill:#3a9abf"/><polygon points="988.13 238.81 1117.34 209.75 1020.55 255.18 988.13 238.81" style="fill:#8cbadf"/><polygon points="1070.24 283.38 1030.41 263.5 1117.34 209.75 1070.24 283.38" style="fill:#8cbadf"/><path d="M1029.26,277.34a77.41,77.41,0,0,1,17-4.47l-.48-4.52a80.32,80.32,0,0,0-18.14,4.73Z" style="fill:#3a9abf"/><path d="M925,645.32a184.47,184.47,0,0,0,22.91-25l3.63,2.74a189.14,189.14,0,0,1-23.47,25.66Zm40.5-54c2.23-4.68,4.28-9.56,6.1-14.51,2.06-5.6,3.88-11.45,5.42-17.39l4.4,1.14c-1.57,6.09-3.44,12.08-5.55,17.82-1.86,5.08-4,10.09-6.26,14.9Zm18.38-99.53,4.55-.11a295.76,295.76,0,0,1-1.12,34.65l-4.53-.43A288.76,288.76,0,0,0,983.89,491.78Zm-6.48-68.23,4.51-.64c1.91,13.32,3.27,24.2,4.28,34.24l-4.53.46C980.66,447.63,979.31,436.81,977.41,423.55Zm-5.09-34.27a168,168,0,0,1-1.72-34.55l4.54.29a163.62,163.62,0,0,0,1.68,33.59l0,.26-4.51.62ZM978,320.54a82.54,82.54,0,0,1,19.76-29l3.12,3.31a78.2,78.2,0,0,0-18.67,27.44Z" style="fill:#3a9abf"/><path d="M680.29,388.09,685,403.34c.76,2.47-26.12,12.9-60,23.3s-62,16.83-62.78,14.37l-4.68-15.25Z" style="fill:#e6a03a"/><path d="M641.84,421.26l-6-19.54,44.44-13.63L685,403.34C685.59,405.38,667.34,412.85,641.84,421.26Z" style="fill:#eab155"/><path d="M639.78,421.93c-4.74,1.55-9.72,3.13-14.86,4.71-7.66,2.35-15,4.49-21.84,6.38l-6-19.42,36.65-11.24Z" style="fill:#eab155"/><path d="M600.6,433.7c-22.09,6-37.9,9.15-38.46,7.31l-4.68-15.25,37.21-11.41Z" style="fill:#eab155"/><path d="M557.41,425.6c.76,2.47,28.87-4,62.78-14.37s60.81-20.83,60-23.3-28.86,4-62.78,14.37S556.66,423.14,557.41,425.6Z" style="fill:#e6a03a"/><path d="M568.25,422.28c.53,1.7,23.59-3.85,51.53-12.42s50.14-16.89,49.62-18.6-23.59,3.85-51.52,12.41S567.73,420.57,568.25,422.28Z" style="fill:#f8cc7f"/><path d="M1226.72,517.1l-5.21,9.41c-.84,1.52-18.5-6.65-39.44-18.24s-37.23-22.22-36.39-23.75l5.21-9.41Z" style="fill:#e6a03a"/><path d="M1192.61,514l6.67-12.06,27.44,15.2-5.21,9.41C1220.82,527.77,1208.63,522.41,1192.61,514Z" style="fill:#eab155"/><path d="M1191.32,513.28c-3-1.57-6.08-3.25-9.25-5-4.73-2.62-9.22-5.18-13.33-7.61l6.64-12L1198,501.2Z" style="fill:#eab155"/><path d="M1167.25,499.77c-13.28-7.9-22.2-14.11-21.57-15.25l5.21-9.41,23,12.72Z" style="fill:#eab155"/><path d="M1151,475c-.84,1.52,15.45,12.15,36.39,23.75s38.6,19.76,39.44,18.24-15.45-12.16-36.39-23.75S1151.79,473.49,1151,475Z" style="fill:#e6a03a"/><path d="M1157.64,478.72c-.58,1,12.92,9.65,30.17,19.19s31.69,16.43,32.28,15.38-12.93-9.65-30.17-19.2S1158.22,477.66,1157.64,478.72Z" style="fill:#f8cc7f"/><path d="M1293.6,330.18l1.27,4.17c.21.67-7.14,3.53-16.41,6.37s-17,4.6-17.16,3.93l-1.28-4.17Z" style="fill:#e6a03a"/><path d="M1283.09,339.25l-1.64-5.34,12.15-3.73,1.27,4.17C1295.05,334.91,1290.06,337,1283.09,339.25Z" style="fill:#eab155"/><path d="M1282.52,339.43c-1.29.43-2.65.86-4.06,1.29-2.09.64-4.1,1.23-6,1.74l-1.63-5.31,10-3.07Z" style="fill:#eab155"/><path d="M1271.81,342.65c-6,1.65-10.36,2.5-10.51,2l-1.28-4.17,10.17-3.12Z" style="fill:#eab155"/><path d="M1260,340.44c.2.67,7.89-1.09,17.16-3.93s16.62-5.7,16.41-6.37-7.89,1.08-17.16,3.93S1259.8,339.76,1260,340.44Z" style="fill:#e6a03a"/><path d="M1263,339.53c.14.46,6.45-1.06,14.08-3.4s13.71-4.62,13.57-5.08-6.45,1.05-14.08,3.39S1262.83,339.06,1263,339.53Z" style="fill:#f8cc7f"/><path d="M303.2,445.69l-6.51,22.75c-1.06,3.68-42.95-5.09-93.57-19.59s-90.8-29.24-89.74-32.92l6.51-22.75Z" style="fill:#e6a03a"/><path d="M228.52,455.84l8.35-29.15,66.33,19-6.51,22.75C295.81,471.48,267.05,466,228.52,455.84Z" style="fill:#eab155"/><path d="M225.42,455c-7.16-1.91-14.63-4-22.3-6.17-11.42-3.28-22.32-6.56-32.33-9.73l8.3-29,54.7,15.66Z" style="fill:#eab155"/><path d="M167.15,438c-32.37-10.37-54.56-19.28-53.77-22l6.51-22.75,55.53,15.9Z" style="fill:#eab155"/><path d="M120,392.94c-1,3.68,39.13,18.41,89.75,32.91s92.51,23.27,93.56,19.59S264.14,427,213.52,412.53,121,389.26,120,392.94Z" style="fill:#e6a03a"/><path d="M136.14,397.57c-.73,2.55,32.47,14.3,74.15,26.24s76.07,19.55,76.8,17-32.47-14.3-74.15-26.24S136.87,395,136.14,397.57Z" style="fill:#f8cc7f"/><path d="M456.06,182.55l2.75,5c.45.8-8.13,6.41-19.16,12.52s-20.32,10.43-20.76,9.63l-2.75-5Z" style="fill:#e6a03a"/><path d="M445.14,196.92l-3.52-6.35,14.44-8,2.75,5C459.18,188.17,453.38,192.12,445.14,196.92Z" style="fill:#eab155"/><path d="M444.47,197.3c-1.53.89-3.15,1.81-4.82,2.73-2.49,1.38-4.89,2.67-7.12,3.83l-3.5-6.31,11.91-6.61Z" style="fill:#eab155"/><path d="M431.72,204.28c-7.24,3.72-12.5,6-12.83,5.38l-2.75-5L428.23,198Z" style="fill:#eab155"/><path d="M416.11,204.65c.44.8,9.74-3.51,20.77-9.63S456.48,183.3,456,182.5s-9.74,3.51-20.76,9.62S415.66,203.85,416.11,204.65Z" style="fill:#e6a03a"/><path d="M419.63,202.69c.31.56,7.92-3.07,17-8.11s16.19-9.57,15.88-10.12-7.92,3.07-17,8.11S419.32,202.14,419.63,202.69Z" style="fill:#f8cc7f"/></g></g></svg>