<svg xmlns="http://www.w3.org/2000/svg" viewBox="0 0 1825.18 788.89"><title>head-img-about_1</title><g id="Layer_2" data-name="Layer 2"><g id="Layer_1-2" data-name="Layer 1"><rect width="1825.18" height="788.89" style="fill:#fdfefe"/><rect width="1825.18" height="788.89" style="fill:#f2f3f5"/><g id="Layer_1-2-2" data-name="Layer 1-2"><circle cx="912.59" cy="398.84" r="135.83" style="fill:#fff;stroke:#29aae1;stroke-miterlimit:10;stroke-width:40px"/><path d="M877.13,448.3h0l24.17-.1c16.84-.07,30.44-10.9,30.39-24.16h0l-24.17.1C890.69,424.2,877.08,435,877.13,448.3Z" style="fill:#3782c4"/><path d="M874.3,413.47h0l52.5-.22c15.48-.06,28-10.88,27.92-24.16l-52.49.22C886.75,389.37,874.25,400.19,874.3,413.47Z" style="fill:#4393cf"/><path d="M875.61,376.28h0a24.06,24.06,0,0,1,23.95-24.15h0l74.38-.31h0A24.06,24.06,0,0,1,950,376h0l-74.36.31Z" style="fill:#29aae1"/></g></g></g></svg>